<?xml version="1.0" encoding="UTF-8"?>
<svg xmlns="http://www.w3.org/2000/svg" version="1.1" width="300" height="300" viewBox="0 0 300 300"><rect x="0" y="0" width="300" height="300" fill="#ffffff"/><g transform="scale(10.345)"><g transform="translate(0,0)"><path fill-rule="evenodd" d="M9 0L9 1L8 1L8 3L9 3L9 4L8 4L8 8L6 8L6 9L8 9L8 8L10 8L10 10L4 10L4 11L5 11L5 12L4 12L4 13L5 13L5 15L4 15L4 16L3 16L3 15L2 15L2 14L3 14L3 12L2 12L2 13L1 13L1 11L3 11L3 9L4 9L4 8L3 8L3 9L2 9L2 8L0 8L0 9L2 9L2 10L1 10L1 11L0 11L0 15L1 15L1 16L2 16L2 17L4 17L4 18L2 18L2 19L4 19L4 20L6 20L6 21L8 21L8 23L9 23L9 25L8 25L8 26L10 26L10 27L8 27L8 29L11 29L11 28L12 28L12 29L14 29L14 28L12 28L12 24L14 24L14 25L13 25L13 27L15 27L15 24L16 24L16 25L17 25L17 26L18 26L18 27L16 27L16 28L15 28L15 29L16 29L16 28L17 28L17 29L18 29L18 28L20 28L20 29L21 29L21 27L19 27L19 26L20 26L20 25L21 25L21 26L24 26L24 29L26 29L26 28L25 28L25 27L27 27L27 29L28 29L28 27L29 27L29 26L28 26L28 25L29 25L29 24L28 24L28 22L29 22L29 21L27 21L27 20L29 20L29 17L28 17L28 15L29 15L29 14L24 14L24 16L26 16L26 15L27 15L27 17L28 17L28 18L27 18L27 20L26 20L26 22L27 22L27 23L25 23L25 19L24 19L24 17L22 17L22 16L23 16L23 15L22 15L22 13L24 13L24 12L20 12L20 11L21 11L21 10L23 10L23 9L25 9L25 10L24 10L24 11L26 11L26 12L25 12L25 13L26 13L26 12L27 12L27 13L29 13L29 12L28 12L28 10L29 10L29 9L28 9L28 8L26 8L26 9L25 9L25 8L22 8L22 9L21 9L21 10L18 10L18 11L19 11L19 12L17 12L17 10L16 10L16 12L15 12L15 11L14 11L14 12L15 12L15 13L16 13L16 14L17 14L17 13L19 13L19 14L21 14L21 17L22 17L22 18L23 18L23 19L22 19L22 20L20 20L20 19L19 19L19 17L20 17L20 15L17 15L17 16L16 16L16 18L17 18L17 17L18 17L18 19L17 19L17 20L16 20L16 19L15 19L15 20L14 20L14 18L13 18L13 20L12 20L12 19L11 19L11 17L12 17L12 16L13 16L13 17L15 17L15 15L13 15L13 12L12 12L12 13L10 13L10 14L12 14L12 16L11 16L11 15L10 15L10 16L11 16L11 17L10 17L10 18L8 18L8 19L7 19L7 18L5 18L5 17L4 17L4 16L6 16L6 17L8 17L8 16L9 16L9 15L8 15L8 14L9 14L9 13L7 13L7 12L8 12L8 11L11 11L11 10L12 10L12 9L11 9L11 8L10 8L10 7L11 7L11 6L12 6L12 8L13 8L13 6L14 6L14 8L19 8L19 9L20 9L20 8L21 8L21 5L19 5L19 4L21 4L21 2L20 2L20 3L18 3L18 2L19 2L19 1L20 1L20 0L18 0L18 1L17 1L17 0L16 0L16 1L15 1L15 0L12 0L12 1L11 1L11 2L9 2L9 1L10 1L10 0ZM14 2L14 3L15 3L15 2ZM12 3L12 4L9 4L9 5L10 5L10 6L9 6L9 7L10 7L10 6L11 6L11 5L12 5L12 6L13 6L13 3ZM17 3L17 4L16 4L16 5L18 5L18 6L17 6L17 7L18 7L18 6L19 6L19 7L20 7L20 6L19 6L19 5L18 5L18 3ZM15 6L15 7L16 7L16 6ZM14 9L14 10L15 10L15 9ZM26 9L26 10L28 10L28 9ZM6 11L6 12L7 12L7 11ZM6 13L6 14L7 14L7 13ZM6 15L6 16L8 16L8 15ZM18 16L18 17L19 17L19 16ZM25 17L25 18L26 18L26 17ZM0 18L0 19L1 19L1 18ZM6 19L6 20L7 20L7 19ZM9 19L9 20L10 20L10 19ZM23 19L23 20L24 20L24 19ZM0 20L0 21L1 21L1 20ZM13 20L13 21L14 21L14 22L15 22L15 23L14 23L14 24L15 24L15 23L17 23L17 24L18 24L18 26L19 26L19 25L20 25L20 20L17 20L17 21L19 21L19 23L17 23L17 22L16 22L16 20L15 20L15 21L14 21L14 20ZM10 21L10 23L11 23L11 21ZM21 21L21 24L24 24L24 21ZM22 22L22 23L23 23L23 22ZM10 24L10 25L11 25L11 24ZM25 24L25 25L27 25L27 24ZM27 26L27 27L28 27L28 26ZM22 27L22 29L23 29L23 27ZM0 0L0 7L7 7L7 0ZM1 1L1 6L6 6L6 1ZM2 2L2 5L5 5L5 2ZM22 0L22 7L29 7L29 0ZM23 1L23 6L28 6L28 1ZM24 2L24 5L27 5L27 2ZM0 22L0 29L7 29L7 22ZM1 23L1 28L6 28L6 23ZM2 24L2 27L5 27L5 24Z" fill="#000000"/></g></g></svg>
