<?xml version="1.0" encoding="UTF-8"?>
<svg xmlns="http://www.w3.org/2000/svg" version="1.1" width="200" height="200" viewBox="0 0 200 200"><rect x="0" y="0" width="200" height="200" fill="#ffffff"/><g transform="scale(6.897)"><g transform="translate(0,0)"><path fill-rule="evenodd" d="M9 0L9 1L10 1L10 2L8 2L8 3L9 3L9 4L10 4L10 5L9 5L9 6L8 6L8 8L4 8L4 9L3 9L3 8L0 8L0 11L1 11L1 12L0 12L0 14L1 14L1 13L3 13L3 15L4 15L4 16L1 16L1 18L0 18L0 19L1 19L1 20L0 20L0 21L1 21L1 20L2 20L2 21L3 21L3 20L4 20L4 21L5 21L5 20L6 20L6 21L7 21L7 20L8 20L8 25L9 25L9 26L8 26L8 29L9 29L9 26L10 26L10 29L11 29L11 28L12 28L12 29L13 29L13 28L12 28L12 27L11 27L11 26L12 26L12 24L14 24L14 26L13 26L13 27L14 27L14 26L15 26L15 24L16 24L16 26L17 26L17 27L16 27L16 28L15 28L15 29L18 29L18 28L19 28L19 29L21 29L21 26L22 26L22 25L23 25L23 27L22 27L22 28L23 28L23 27L24 27L24 29L25 29L25 27L26 27L26 26L28 26L28 27L27 27L27 29L29 29L29 28L28 28L28 27L29 27L29 24L28 24L28 23L29 23L29 21L26 21L26 22L25 22L25 20L26 20L26 19L24 19L24 18L23 18L23 15L24 15L24 16L25 16L25 18L27 18L27 20L28 20L28 19L29 19L29 16L28 16L28 15L29 15L29 12L28 12L28 11L29 11L29 9L28 9L28 10L26 10L26 9L27 9L27 8L26 8L26 9L25 9L25 10L24 10L24 11L23 11L23 8L21 8L21 6L20 6L20 4L21 4L21 3L18 3L18 5L19 5L19 6L18 6L18 7L17 7L17 6L16 6L16 5L17 5L17 3L15 3L15 2L20 2L20 0L18 0L18 1L17 1L17 0L16 0L16 1L15 1L15 0L12 0L12 1L10 1L10 0ZM13 1L13 2L14 2L14 1ZM11 2L11 3L12 3L12 4L11 4L11 5L10 5L10 6L9 6L9 7L10 7L10 6L11 6L11 8L12 8L12 10L10 10L10 8L9 8L9 10L10 10L10 11L8 11L8 9L6 9L6 10L7 10L7 11L5 11L5 13L4 13L4 15L5 15L5 16L4 16L4 17L6 17L6 18L8 18L8 20L9 20L9 21L10 21L10 22L9 22L9 24L10 24L10 26L11 26L11 24L12 24L12 23L11 23L11 24L10 24L10 22L11 22L11 21L12 21L12 20L13 20L13 21L14 21L14 22L13 22L13 23L14 23L14 22L15 22L15 23L16 23L16 20L15 20L15 19L18 19L18 18L16 18L16 17L17 17L17 14L18 14L18 15L20 15L20 16L18 16L18 17L19 17L19 20L18 20L18 21L19 21L19 22L20 22L20 20L24 20L24 19L23 19L23 18L22 18L22 17L21 17L21 15L20 15L20 13L15 13L15 12L16 12L16 11L18 11L18 12L19 12L19 11L20 11L20 10L21 10L21 12L23 12L23 11L22 11L22 10L21 10L21 9L19 9L19 8L20 8L20 6L19 6L19 8L18 8L18 9L17 9L17 7L16 7L16 6L15 6L15 5L14 5L14 4L13 4L13 3L12 3L12 2ZM13 5L13 6L12 6L12 8L14 8L14 10L13 10L13 11L14 11L14 10L15 10L15 6L14 6L14 5ZM13 6L13 7L14 7L14 6ZM1 9L1 11L2 11L2 10L3 10L3 9ZM4 9L4 10L5 10L5 9ZM18 10L18 11L19 11L19 10ZM25 10L25 11L24 11L24 13L23 13L23 14L22 14L22 15L23 15L23 14L25 14L25 12L26 12L26 17L27 17L27 18L28 18L28 17L27 17L27 14L28 14L28 13L27 13L27 11L26 11L26 10ZM7 11L7 12L6 12L6 13L7 13L7 14L5 14L5 15L7 15L7 16L6 16L6 17L8 17L8 18L9 18L9 20L12 20L12 19L11 19L11 18L12 18L12 16L14 16L14 18L13 18L13 19L14 19L14 18L15 18L15 14L14 14L14 13L13 13L13 12L12 12L12 11L11 11L11 12L12 12L12 13L11 13L11 14L10 14L10 13L9 13L9 12L8 12L8 11ZM7 12L7 13L8 13L8 12ZM8 14L8 15L9 15L9 14ZM13 14L13 15L14 15L14 14ZM11 15L11 16L9 16L9 17L10 17L10 18L11 18L11 16L12 16L12 15ZM2 17L2 18L1 18L1 19L2 19L2 20L3 20L3 19L2 19L2 18L3 18L3 17ZM20 17L20 18L21 18L21 17ZM4 19L4 20L5 20L5 19ZM6 19L6 20L7 20L7 19ZM21 21L21 24L24 24L24 21ZM22 22L22 23L23 23L23 22ZM26 22L26 24L25 24L25 26L26 26L26 25L27 25L27 22ZM18 23L18 26L19 26L19 27L20 27L20 26L21 26L21 25L20 25L20 23ZM0 0L0 7L7 7L7 0ZM1 1L1 6L6 6L6 1ZM2 2L2 5L5 5L5 2ZM22 0L22 7L29 7L29 0ZM23 1L23 6L28 6L28 1ZM24 2L24 5L27 5L27 2ZM0 22L0 29L7 29L7 22ZM1 23L1 28L6 28L6 23ZM2 24L2 27L5 27L5 24Z" fill="#000000"/></g></g></svg>
