<?xml version="1.0" encoding="UTF-8"?>
<svg xmlns="http://www.w3.org/2000/svg" version="1.1" width="200" height="200" viewBox="0 0 200 200"><rect x="0" y="0" width="200" height="200" fill="#ffffff"/><g transform="scale(6.897)"><g transform="translate(0,0)"><path fill-rule="evenodd" d="M8 0L8 4L10 4L10 3L11 3L11 4L12 4L12 2L11 2L11 0ZM12 0L12 1L13 1L13 0ZM14 0L14 1L15 1L15 0ZM18 0L18 1L19 1L19 2L17 2L17 1L16 1L16 2L17 2L17 3L18 3L18 5L17 5L17 6L16 6L16 9L15 9L15 5L16 5L16 3L14 3L14 2L13 2L13 3L14 3L14 4L13 4L13 5L11 5L11 6L10 6L10 7L9 7L9 5L8 5L8 7L9 7L9 8L10 8L10 7L11 7L11 6L12 6L12 8L11 8L11 9L9 9L9 10L8 10L8 9L7 9L7 8L4 8L4 9L2 9L2 8L0 8L0 10L1 10L1 11L0 11L0 13L1 13L1 14L0 14L0 18L1 18L1 15L3 15L3 16L4 16L4 14L2 14L2 13L7 13L7 14L6 14L6 15L5 15L5 16L6 16L6 17L7 17L7 16L8 16L8 14L9 14L9 13L7 13L7 12L5 12L5 11L7 11L7 10L8 10L8 11L9 11L9 10L11 10L11 11L10 11L10 13L11 13L11 12L12 12L12 13L13 13L13 14L15 14L15 15L14 15L14 16L13 16L13 15L12 15L12 16L9 16L9 17L12 17L12 18L9 18L9 19L8 19L8 18L5 18L5 17L4 17L4 18L3 18L3 17L2 17L2 18L3 18L3 19L2 19L2 20L0 20L0 21L3 21L3 20L5 20L5 21L8 21L8 22L10 22L10 20L9 20L9 19L11 19L11 20L12 20L12 21L13 21L13 22L15 22L15 23L14 23L14 24L13 24L13 23L12 23L12 24L11 24L11 23L10 23L10 24L9 24L9 23L8 23L8 25L9 25L9 27L8 27L8 29L11 29L11 28L12 28L12 29L14 29L14 27L16 27L16 26L17 26L17 25L18 25L18 26L19 26L19 25L20 25L20 26L21 26L21 27L20 27L20 29L21 29L21 27L22 27L22 26L21 26L21 25L26 25L26 24L25 24L25 23L27 23L27 25L28 25L28 26L25 26L25 27L24 27L24 29L26 29L26 27L27 27L27 29L28 29L28 28L29 28L29 25L28 25L28 24L29 24L29 17L28 17L28 16L29 16L29 13L28 13L28 12L29 12L29 8L25 8L25 9L24 9L24 8L23 8L23 9L22 9L22 10L21 10L21 5L19 5L19 2L20 2L20 4L21 4L21 1L19 1L19 0ZM9 2L9 3L10 3L10 2ZM13 6L13 8L12 8L12 9L11 9L11 10L12 10L12 9L13 9L13 10L15 10L15 9L13 9L13 8L14 8L14 6ZM17 6L17 7L18 7L18 6ZM19 6L19 7L20 7L20 6ZM18 8L18 9L19 9L19 10L18 10L18 12L19 12L19 16L18 16L18 17L17 17L17 18L16 18L16 20L15 20L15 19L14 19L14 21L17 21L17 23L16 23L16 24L15 24L15 25L13 25L13 24L12 24L12 25L11 25L11 24L10 24L10 25L11 25L11 26L10 26L10 27L9 27L9 28L10 28L10 27L11 27L11 26L12 26L12 25L13 25L13 26L15 26L15 25L17 25L17 23L18 23L18 25L19 25L19 22L20 22L20 21L19 21L19 20L18 20L18 21L17 21L17 18L18 18L18 19L20 19L20 20L22 20L22 19L23 19L23 20L24 20L24 18L22 18L22 19L20 19L20 18L21 18L21 15L22 15L22 17L26 17L26 18L25 18L25 20L26 20L26 21L25 21L25 22L27 22L27 23L28 23L28 20L27 20L27 19L28 19L28 18L27 18L27 15L28 15L28 14L27 14L27 15L25 15L25 14L22 14L22 13L23 13L23 12L22 12L22 11L21 11L21 10L20 10L20 8ZM1 9L1 10L2 10L2 9ZM5 9L5 10L7 10L7 9ZM16 9L16 11L14 11L14 13L15 13L15 12L16 12L16 15L15 15L15 17L13 17L13 16L12 16L12 17L13 17L13 18L15 18L15 17L16 17L16 15L18 15L18 14L17 14L17 9ZM3 10L3 11L4 11L4 10ZM24 10L24 13L27 13L27 11L28 11L28 10ZM1 11L1 12L2 12L2 11ZM12 11L12 12L13 12L13 11ZM20 11L20 13L22 13L22 12L21 12L21 11ZM25 11L25 12L26 12L26 11ZM6 15L6 16L7 16L7 15ZM24 15L24 16L25 16L25 15ZM19 16L19 17L20 17L20 16ZM26 18L26 19L27 19L27 18ZM5 19L5 20L7 20L7 19ZM12 19L12 20L13 20L13 19ZM8 20L8 21L9 21L9 20ZM21 21L21 24L24 24L24 21ZM22 22L22 23L23 23L23 22ZM12 27L12 28L13 28L13 27ZM17 27L17 29L18 29L18 28L19 28L19 27ZM15 28L15 29L16 29L16 28ZM22 28L22 29L23 29L23 28ZM0 0L0 7L7 7L7 0ZM1 1L1 6L6 6L6 1ZM2 2L2 5L5 5L5 2ZM22 0L22 7L29 7L29 0ZM23 1L23 6L28 6L28 1ZM24 2L24 5L27 5L27 2ZM0 22L0 29L7 29L7 22ZM1 23L1 28L6 28L6 23ZM2 24L2 27L5 27L5 24Z" fill="#000000"/></g></g></svg>
