<?xml version="1.0" encoding="UTF-8"?>
<svg xmlns="http://www.w3.org/2000/svg" version="1.1" width="200" height="200" viewBox="0 0 200 200"><rect x="0" y="0" width="200" height="200" fill="#ffffff"/><g transform="scale(6.897)"><g transform="translate(0,0)"><path fill-rule="evenodd" d="M8 0L8 1L9 1L9 2L8 2L8 5L9 5L9 4L11 4L11 5L10 5L10 10L9 10L9 12L8 12L8 11L7 11L7 10L4 10L4 12L5 12L5 11L7 11L7 12L6 12L6 13L7 13L7 14L6 14L6 15L7 15L7 14L8 14L8 16L9 16L9 14L10 14L10 13L11 13L11 16L10 16L10 17L9 17L9 19L7 19L7 18L8 18L8 17L7 17L7 16L5 16L5 17L4 17L4 14L3 14L3 13L2 13L2 11L0 11L0 12L1 12L1 13L0 13L0 17L1 17L1 15L2 15L2 16L3 16L3 17L2 17L2 20L1 20L1 21L4 21L4 20L5 20L5 19L7 19L7 20L6 20L6 21L7 21L7 20L9 20L9 21L8 21L8 22L10 22L10 23L11 23L11 24L9 24L9 25L8 25L8 29L10 29L10 26L9 26L9 25L11 25L11 26L12 26L12 28L11 28L11 29L12 29L12 28L14 28L14 27L15 27L15 26L17 26L17 27L16 27L16 28L15 28L15 29L16 29L16 28L17 28L17 27L18 27L18 24L17 24L17 25L16 25L16 24L15 24L15 22L14 22L14 23L11 23L11 22L10 22L10 20L12 20L12 19L10 19L10 17L11 17L11 16L12 16L12 17L13 17L13 16L12 16L12 14L13 14L13 15L14 15L14 18L13 18L13 21L15 21L15 19L16 19L16 22L17 22L17 21L19 21L19 23L20 23L20 25L19 25L19 27L20 27L20 28L18 28L18 29L21 29L21 27L20 27L20 26L21 26L21 25L23 25L23 27L22 27L22 29L24 29L24 26L26 26L26 27L25 27L25 28L26 28L26 27L27 27L27 29L28 29L28 27L29 27L29 25L28 25L28 27L27 27L27 26L26 26L26 25L27 25L27 24L26 24L26 22L27 22L27 23L28 23L28 24L29 24L29 23L28 23L28 22L29 22L29 21L27 21L27 18L28 18L28 15L29 15L29 13L27 13L27 12L25 12L25 13L26 13L26 15L27 15L27 17L26 17L26 16L24 16L24 14L23 14L23 13L24 13L24 12L23 12L23 11L24 11L24 10L25 10L25 9L27 9L27 8L24 8L24 9L22 9L22 8L21 8L21 10L20 10L20 9L19 9L19 8L20 8L20 7L21 7L21 6L20 6L20 4L21 4L21 0L18 0L18 1L16 1L16 0L15 0L15 1L16 1L16 2L18 2L18 3L14 3L14 5L13 5L13 3L12 3L12 4L11 4L11 2L14 2L14 0L12 0L12 1L11 1L11 0L10 0L10 1L9 1L9 0ZM19 1L19 2L20 2L20 1ZM18 3L18 6L17 6L17 4L16 4L16 5L14 5L14 6L13 6L13 5L12 5L12 6L11 6L11 8L12 8L12 6L13 6L13 8L14 8L14 9L15 9L15 10L14 10L14 11L11 11L11 13L12 13L12 12L13 12L13 14L14 14L14 15L15 15L15 17L16 17L16 18L17 18L17 19L18 19L18 16L19 16L19 19L20 19L20 17L21 17L21 14L22 14L22 15L23 15L23 14L22 14L22 13L23 13L23 12L20 12L20 15L17 15L17 14L19 14L19 13L17 13L17 12L19 12L19 11L20 11L20 10L18 10L18 11L16 11L16 10L17 10L17 7L18 7L18 6L19 6L19 7L20 7L20 6L19 6L19 4L20 4L20 3ZM8 6L8 7L9 7L9 6ZM14 6L14 7L15 7L15 8L16 8L16 7L17 7L17 6L16 6L16 7L15 7L15 6ZM0 8L0 9L1 9L1 10L2 10L2 9L4 9L4 8ZM6 8L6 9L7 9L7 8ZM8 8L8 9L9 9L9 8ZM28 8L28 10L26 10L26 11L28 11L28 12L29 12L29 11L28 11L28 10L29 10L29 8ZM11 9L11 10L12 10L12 9ZM21 10L21 11L23 11L23 10ZM15 11L15 12L14 12L14 14L16 14L16 13L15 13L15 12L16 12L16 11ZM8 13L8 14L9 14L9 13ZM16 16L16 17L17 17L17 16ZM22 16L22 18L23 18L23 16ZM3 17L3 20L4 20L4 17ZM6 17L6 18L7 18L7 17ZM24 17L24 19L22 19L22 20L24 20L24 19L25 19L25 20L26 20L26 18L25 18L25 17ZM0 18L0 19L1 19L1 18ZM9 19L9 20L10 20L10 19ZM21 21L21 24L24 24L24 21ZM22 22L22 23L23 23L23 22ZM12 24L12 26L13 26L13 27L14 27L14 26L15 26L15 24ZM25 24L25 25L26 25L26 24ZM13 25L13 26L14 26L14 25ZM0 0L0 7L7 7L7 0ZM1 1L1 6L6 6L6 1ZM2 2L2 5L5 5L5 2ZM22 0L22 7L29 7L29 0ZM23 1L23 6L28 6L28 1ZM24 2L24 5L27 5L27 2ZM0 22L0 29L7 29L7 22ZM1 23L1 28L6 28L6 23ZM2 24L2 27L5 27L5 24Z" fill="#000000"/></g></g></svg>
