<?xml version="1.0" encoding="UTF-8"?>
<svg xmlns="http://www.w3.org/2000/svg" version="1.1" width="200" height="200" viewBox="0 0 200 200"><rect x="0" y="0" width="200" height="200" fill="#ffffff"/><g transform="scale(6.061)"><g transform="translate(0,0)"><path fill-rule="evenodd" d="M9 0L9 1L8 1L8 2L9 2L9 3L8 3L8 4L10 4L10 7L11 7L11 4L12 4L12 5L13 5L13 6L12 6L12 9L13 9L13 8L14 8L14 9L18 9L18 10L20 10L20 11L21 11L21 12L19 12L19 11L18 11L18 12L15 12L15 11L16 11L16 10L15 10L15 11L14 11L14 12L15 12L15 13L12 13L12 11L13 11L13 10L11 10L11 11L10 11L10 9L11 9L11 8L6 8L6 9L7 9L7 10L6 10L6 11L5 11L5 10L4 10L4 9L5 9L5 8L0 8L0 10L1 10L1 11L2 11L2 12L1 12L1 13L0 13L0 14L2 14L2 16L0 16L0 17L1 17L1 19L2 19L2 20L0 20L0 25L1 25L1 22L3 22L3 21L4 21L4 22L5 22L5 23L2 23L2 25L5 25L5 24L6 24L6 25L8 25L8 27L9 27L9 28L8 28L8 33L11 33L11 31L9 31L9 30L11 30L11 29L12 29L12 30L13 30L13 31L12 31L12 33L13 33L13 32L14 32L14 33L16 33L16 31L17 31L17 30L15 30L15 29L19 29L19 30L18 30L18 31L19 31L19 30L22 30L22 31L20 31L20 33L21 33L21 32L22 32L22 31L24 31L24 30L23 30L23 29L19 29L19 28L20 28L20 27L21 27L21 28L24 28L24 29L25 29L25 30L26 30L26 31L25 31L25 32L24 32L24 33L25 33L25 32L27 32L27 30L26 30L26 29L28 29L28 30L29 30L29 32L28 32L28 33L29 33L29 32L31 32L31 33L32 33L32 32L31 32L31 31L30 31L30 29L29 29L29 28L31 28L31 27L32 27L32 29L31 29L31 30L33 30L33 27L32 27L32 26L33 26L33 24L32 24L32 26L31 26L31 25L30 25L30 26L29 26L29 24L31 24L31 23L32 23L32 22L33 22L33 21L32 21L32 20L31 20L31 19L32 19L32 18L33 18L33 17L32 17L32 16L31 16L31 15L32 15L32 14L33 14L33 13L31 13L31 15L30 15L30 16L31 16L31 19L30 19L30 17L29 17L29 14L27 14L27 13L26 13L26 12L28 12L28 13L30 13L30 12L31 12L31 11L32 11L32 10L33 10L33 9L32 9L32 8L31 8L31 9L30 9L30 8L29 8L29 9L30 9L30 10L29 10L29 11L27 11L27 10L28 10L28 8L27 8L27 9L26 9L26 8L24 8L24 7L25 7L25 6L24 6L24 7L23 7L23 6L22 6L22 7L21 7L21 6L20 6L20 7L21 7L21 8L19 8L19 5L22 5L22 4L23 4L23 5L24 5L24 4L23 4L23 3L22 3L22 2L21 2L21 3L22 3L22 4L18 4L18 3L20 3L20 2L18 2L18 1L17 1L17 0L15 0L15 1L17 1L17 2L16 2L16 3L17 3L17 4L18 4L18 5L17 5L17 6L16 6L16 4L12 4L12 2L13 2L13 1L11 1L11 2L10 2L10 0ZM19 0L19 1L20 1L20 0ZM21 0L21 1L24 1L24 0ZM14 2L14 3L15 3L15 2ZM17 2L17 3L18 3L18 2ZM24 2L24 3L25 3L25 2ZM10 3L10 4L11 4L11 3ZM8 5L8 7L9 7L9 5ZM13 6L13 7L14 7L14 8L18 8L18 9L19 9L19 8L18 8L18 6L17 6L17 7L16 7L16 6L15 6L15 7L14 7L14 6ZM21 8L21 9L20 9L20 10L21 10L21 11L22 11L22 10L23 10L23 12L24 12L24 10L23 10L23 9L22 9L22 8ZM1 9L1 10L2 10L2 9ZM25 9L25 10L26 10L26 9ZM7 10L7 11L6 11L6 12L4 12L4 14L5 14L5 15L4 15L4 17L3 17L3 16L2 16L2 19L3 19L3 20L2 20L2 21L3 21L3 20L4 20L4 21L5 21L5 22L7 22L7 23L6 23L6 24L8 24L8 25L9 25L9 24L10 24L10 26L9 26L9 27L10 27L10 28L9 28L9 29L10 29L10 28L11 28L11 26L13 26L13 27L12 27L12 29L15 29L15 28L14 28L14 27L15 27L15 26L16 26L16 28L18 28L18 26L19 26L19 27L20 27L20 26L21 26L21 27L22 27L22 26L23 26L23 25L24 25L24 24L27 24L27 22L28 22L28 24L29 24L29 21L30 21L30 23L31 23L31 20L30 20L30 19L29 19L29 17L27 17L27 16L28 16L28 15L27 15L27 14L26 14L26 13L24 13L24 14L23 14L23 13L22 13L22 12L21 12L21 13L20 13L20 14L19 14L19 13L15 13L15 14L19 14L19 15L16 15L16 16L15 16L15 15L14 15L14 16L13 16L13 17L12 17L12 15L13 15L13 14L12 14L12 13L11 13L11 12L10 12L10 13L9 13L9 14L10 14L10 15L8 15L8 17L6 17L6 18L7 18L7 19L4 19L4 17L5 17L5 15L6 15L6 16L7 16L7 15L6 15L6 14L7 14L7 13L6 13L6 12L9 12L9 10ZM30 10L30 11L29 11L29 12L30 12L30 11L31 11L31 10ZM25 11L25 12L26 12L26 11ZM2 13L2 14L3 14L3 13ZM5 13L5 14L6 14L6 13ZM10 13L10 14L11 14L11 13ZM21 13L21 16L20 16L20 15L19 15L19 16L16 16L16 17L19 17L19 18L15 18L15 19L14 19L14 20L15 20L15 21L12 21L12 19L13 19L13 18L10 18L10 19L7 19L7 20L5 20L5 21L7 21L7 20L8 20L8 22L10 22L10 21L12 21L12 22L13 22L13 23L12 23L12 25L13 25L13 24L14 24L14 25L16 25L16 26L18 26L18 25L19 25L19 26L20 26L20 25L21 25L21 24L23 24L23 23L21 23L21 22L24 22L24 23L25 23L25 22L27 22L27 21L29 21L29 20L28 20L28 19L25 19L25 20L24 20L24 21L23 21L23 18L24 18L24 17L25 17L25 18L27 18L27 17L26 17L26 15L23 15L23 14L22 14L22 13ZM10 15L10 16L11 16L11 15ZM22 15L22 16L21 16L21 17L20 17L20 16L19 16L19 17L20 17L20 18L19 18L19 19L21 19L21 17L22 17L22 18L23 18L23 17L24 17L24 16L23 16L23 15ZM14 16L14 17L15 17L15 16ZM22 16L22 17L23 17L23 16ZM10 19L10 20L9 20L9 21L10 21L10 20L11 20L11 19ZM16 19L16 21L15 21L15 22L16 22L16 23L14 23L14 24L16 24L16 25L17 25L17 24L19 24L19 25L20 25L20 24L21 24L21 23L20 23L20 22L21 22L21 21L22 21L22 20L21 20L21 21L20 21L20 20L18 20L18 19ZM17 20L17 21L16 21L16 22L17 22L17 21L18 21L18 23L19 23L19 22L20 22L20 21L18 21L18 20ZM26 20L26 21L27 21L27 20ZM24 21L24 22L25 22L25 21ZM25 25L25 28L28 28L28 25ZM26 26L26 27L27 27L27 26ZM30 26L30 27L31 27L31 26ZM14 31L14 32L15 32L15 31ZM17 32L17 33L18 33L18 32ZM0 0L0 7L7 7L7 0ZM1 1L1 6L6 6L6 1ZM2 2L2 5L5 5L5 2ZM26 0L26 7L33 7L33 0ZM27 1L27 6L32 6L32 1ZM28 2L28 5L31 5L31 2ZM0 26L0 33L7 33L7 26ZM1 27L1 32L6 32L6 27ZM2 28L2 31L5 31L5 28Z" fill="#000000"/></g></g></svg>
