<?xml version="1.0" encoding="UTF-8"?>
<svg xmlns="http://www.w3.org/2000/svg" version="1.1" width="200" height="200" viewBox="0 0 200 200"><rect x="0" y="0" width="200" height="200" fill="#ffffff"/><g transform="scale(6.061)"><g transform="translate(0,0)"><path fill-rule="evenodd" d="M9 0L9 1L8 1L8 2L9 2L9 3L8 3L8 4L10 4L10 7L11 7L11 4L12 4L12 5L13 5L13 6L12 6L12 9L13 9L13 8L14 8L14 9L18 9L18 10L15 10L15 11L14 11L14 12L15 12L15 13L12 13L12 11L13 11L13 10L11 10L11 11L10 11L10 9L11 9L11 8L6 8L6 9L5 9L5 8L0 8L0 9L2 9L2 10L0 10L0 14L1 14L1 15L2 15L2 14L3 14L3 13L5 13L5 14L4 14L4 15L5 15L5 16L6 16L6 17L7 17L7 18L6 18L6 19L7 19L7 20L6 20L6 21L8 21L8 22L9 22L9 23L10 23L10 25L8 25L8 27L9 27L9 26L10 26L10 29L9 29L9 28L8 28L8 33L11 33L11 32L9 32L9 31L10 31L10 29L12 29L12 30L13 30L13 31L12 31L12 33L13 33L13 32L14 32L14 33L16 33L16 32L14 32L14 31L17 31L17 30L15 30L15 29L18 29L18 31L19 31L19 30L22 30L22 31L20 31L20 33L21 33L21 32L22 32L22 31L24 31L24 30L23 30L23 29L18 29L18 28L20 28L20 27L21 27L21 28L24 28L24 29L25 29L25 30L26 30L26 31L25 31L25 32L24 32L24 33L25 33L25 32L27 32L27 30L26 30L26 29L28 29L28 30L29 30L29 32L28 32L28 33L29 33L29 32L31 32L31 33L32 33L32 32L31 32L31 31L30 31L30 29L29 29L29 28L31 28L31 27L32 27L32 29L31 29L31 30L33 30L33 27L32 27L32 26L33 26L33 24L32 24L32 26L31 26L31 25L30 25L30 26L29 26L29 24L31 24L31 23L32 23L32 22L33 22L33 21L32 21L32 20L31 20L31 19L32 19L32 18L33 18L33 17L32 17L32 16L31 16L31 15L32 15L32 14L33 14L33 13L31 13L31 15L30 15L30 16L31 16L31 19L30 19L30 17L29 17L29 14L27 14L27 13L26 13L26 12L28 12L28 13L30 13L30 12L31 12L31 11L32 11L32 10L33 10L33 9L32 9L32 8L31 8L31 9L30 9L30 8L29 8L29 9L30 9L30 10L29 10L29 11L27 11L27 10L28 10L28 8L27 8L27 9L26 9L26 8L24 8L24 7L25 7L25 6L24 6L24 7L23 7L23 6L22 6L22 7L21 7L21 5L22 5L22 4L23 4L23 5L24 5L24 4L23 4L23 3L22 3L22 2L21 2L21 3L22 3L22 4L19 4L19 3L20 3L20 2L19 2L19 1L24 1L24 0L18 0L18 1L17 1L17 0L15 0L15 1L17 1L17 2L16 2L16 3L17 3L17 4L19 4L19 5L20 5L20 9L18 9L18 8L14 8L14 7L15 7L15 6L16 6L16 7L17 7L17 6L18 6L18 7L19 7L19 6L18 6L18 5L17 5L17 6L16 6L16 4L12 4L12 2L13 2L13 1L11 1L11 2L10 2L10 0ZM14 2L14 3L15 3L15 2ZM17 2L17 3L19 3L19 2ZM24 2L24 3L25 3L25 2ZM10 3L10 4L11 4L11 3ZM8 5L8 7L9 7L9 5ZM13 6L13 7L14 7L14 6ZM21 8L21 9L20 9L20 10L19 10L19 11L15 11L15 12L16 12L16 13L15 13L15 14L16 14L16 15L14 15L14 16L13 16L13 17L12 17L12 15L13 15L13 14L12 14L12 13L11 13L11 12L10 12L10 13L8 13L8 11L9 11L9 10L8 10L8 11L6 11L6 10L7 10L7 9L6 9L6 10L5 10L5 9L3 9L3 10L4 10L4 12L5 12L5 13L6 13L6 14L5 14L5 15L6 15L6 16L7 16L7 15L6 15L6 14L7 14L7 13L8 13L8 15L9 15L9 18L8 18L8 19L10 19L10 15L11 15L11 18L13 18L13 19L12 19L12 21L11 21L11 20L10 20L10 21L9 21L9 22L11 22L11 25L10 25L10 26L13 26L13 27L12 27L12 29L15 29L15 28L14 28L14 27L15 27L15 26L16 26L16 28L18 28L18 27L17 27L17 26L19 26L19 27L20 27L20 26L21 26L21 27L22 27L22 26L23 26L23 25L24 25L24 24L27 24L27 22L28 22L28 24L29 24L29 21L30 21L30 23L31 23L31 20L30 20L30 19L29 19L29 17L27 17L27 16L28 16L28 15L27 15L27 14L26 14L26 13L24 13L24 14L23 14L23 13L22 13L22 12L21 12L21 11L22 11L22 10L23 10L23 12L24 12L24 10L23 10L23 9L22 9L22 8ZM25 9L25 10L26 10L26 9ZM20 10L20 11L21 11L21 10ZM30 10L30 11L29 11L29 12L30 12L30 11L31 11L31 10ZM1 11L1 12L2 12L2 13L3 13L3 12L2 12L2 11ZM25 11L25 12L26 12L26 11ZM6 12L6 13L7 13L7 12ZM17 12L17 13L16 13L16 14L17 14L17 15L18 15L18 14L17 14L17 13L19 13L19 14L20 14L20 15L19 15L19 16L14 16L14 17L19 17L19 18L20 18L20 17L21 17L21 19L19 19L19 20L17 20L17 19L18 19L18 18L15 18L15 19L14 19L14 20L15 20L15 21L12 21L12 22L13 22L13 23L12 23L12 25L13 25L13 24L14 24L14 25L15 25L15 24L16 24L16 25L19 25L19 26L20 26L20 25L21 25L21 24L23 24L23 23L21 23L21 22L24 22L24 23L25 23L25 22L27 22L27 21L29 21L29 20L28 20L28 19L25 19L25 20L24 20L24 21L23 21L23 18L24 18L24 17L25 17L25 18L27 18L27 17L26 17L26 15L23 15L23 14L22 14L22 13L21 13L21 12L20 12L20 13L19 13L19 12ZM10 13L10 14L11 14L11 13ZM20 13L20 14L21 14L21 13ZM20 15L20 16L19 16L19 17L20 17L20 16L21 16L21 17L22 17L22 18L23 18L23 17L24 17L24 16L23 16L23 15L22 15L22 16L21 16L21 15ZM0 16L0 17L1 17L1 18L2 18L2 19L3 19L3 17L4 17L4 16L3 16L3 17L2 17L2 16ZM22 16L22 17L23 17L23 16ZM0 19L0 25L1 25L1 22L2 22L2 23L4 23L4 24L2 24L2 25L7 25L7 24L8 24L8 23L7 23L7 22L5 22L5 20L3 20L3 21L2 21L2 20L1 20L1 19ZM15 19L15 20L16 20L16 19ZM19 20L19 21L15 21L15 22L16 22L16 24L19 24L19 25L20 25L20 24L21 24L21 23L20 23L20 22L21 22L21 21L22 21L22 20L21 20L21 21L20 21L20 20ZM26 20L26 21L27 21L27 20ZM19 21L19 22L18 22L18 23L19 23L19 22L20 22L20 21ZM24 21L24 22L25 22L25 21ZM4 22L4 23L5 23L5 22ZM6 23L6 24L7 24L7 23ZM14 23L14 24L15 24L15 23ZM25 25L25 28L28 28L28 25ZM26 26L26 27L27 27L27 26ZM30 26L30 27L31 27L31 26ZM17 32L17 33L18 33L18 32ZM0 0L0 7L7 7L7 0ZM1 1L1 6L6 6L6 1ZM2 2L2 5L5 5L5 2ZM26 0L26 7L33 7L33 0ZM27 1L27 6L32 6L32 1ZM28 2L28 5L31 5L31 2ZM0 26L0 33L7 33L7 26ZM1 27L1 32L6 32L6 27ZM2 28L2 31L5 31L5 28Z" fill="#000000"/></g></g></svg>
