<?xml version="1.0" encoding="UTF-8"?>
<svg xmlns="http://www.w3.org/2000/svg" version="1.1" width="200" height="200" viewBox="0 0 200 200"><rect x="0" y="0" width="200" height="200" fill="#ffffff"/><g transform="scale(6.061)"><g transform="translate(0,0)"><path fill-rule="evenodd" d="M9 0L9 1L8 1L8 2L9 2L9 3L8 3L8 4L10 4L10 7L11 7L11 4L12 4L12 5L13 5L13 6L12 6L12 9L13 9L13 8L14 8L14 9L19 9L19 10L15 10L15 11L14 11L14 12L15 12L15 13L12 13L12 11L13 11L13 10L11 10L11 11L10 11L10 9L11 9L11 8L6 8L6 9L5 9L5 8L0 8L0 10L1 10L1 9L2 9L2 11L1 11L1 12L0 12L0 14L3 14L3 13L1 13L1 12L2 12L2 11L3 11L3 12L5 12L5 13L8 13L8 12L9 12L9 15L8 15L8 14L6 14L6 15L2 15L2 16L0 16L0 17L2 17L2 18L1 18L1 19L0 19L0 20L2 20L2 21L0 21L0 25L1 25L1 22L2 22L2 23L4 23L4 24L2 24L2 25L5 25L5 24L6 24L6 25L7 25L7 24L6 24L6 23L8 23L8 22L9 22L9 23L10 23L10 22L11 22L11 21L12 21L12 22L13 22L13 23L12 23L12 25L13 25L13 24L14 24L14 25L19 25L19 26L20 26L20 25L21 25L21 27L18 27L18 28L16 28L16 27L17 27L17 26L15 26L15 27L14 27L14 28L15 28L15 29L12 29L12 27L13 27L13 26L11 26L11 27L10 27L10 28L8 28L8 33L10 33L10 32L11 32L11 31L9 31L9 29L10 29L10 30L11 30L11 29L12 29L12 30L13 30L13 31L12 31L12 33L13 33L13 32L14 32L14 33L16 33L16 32L17 32L17 33L18 33L18 32L19 32L19 33L20 33L20 32L23 32L23 31L24 31L24 30L23 30L23 31L22 31L22 29L23 29L23 28L24 28L24 29L25 29L25 30L26 30L26 31L25 31L25 32L24 32L24 33L25 33L25 32L27 32L27 30L26 30L26 29L28 29L28 30L29 30L29 32L28 32L28 33L29 33L29 32L31 32L31 33L32 33L32 32L31 32L31 31L30 31L30 29L29 29L29 28L31 28L31 30L33 30L33 28L31 28L31 27L32 27L32 26L33 26L33 24L32 24L32 26L31 26L31 25L30 25L30 26L29 26L29 24L31 24L31 23L32 23L32 22L33 22L33 21L32 21L32 20L31 20L31 19L32 19L32 18L33 18L33 17L32 17L32 16L31 16L31 15L32 15L32 14L33 14L33 13L31 13L31 15L30 15L30 16L31 16L31 19L30 19L30 17L29 17L29 14L27 14L27 13L26 13L26 12L28 12L28 13L30 13L30 12L31 12L31 11L32 11L32 10L33 10L33 9L32 9L32 8L31 8L31 9L30 9L30 8L29 8L29 9L30 9L30 10L29 10L29 11L27 11L27 10L28 10L28 8L27 8L27 9L26 9L26 8L24 8L24 7L25 7L25 6L24 6L24 7L23 7L23 5L24 5L24 4L23 4L23 3L25 3L25 2L23 2L23 3L22 3L22 1L20 1L20 0L19 0L19 1L20 1L20 2L21 2L21 3L22 3L22 4L23 4L23 5L22 5L22 7L21 7L21 4L19 4L19 3L17 3L17 1L15 1L15 0L14 0L14 1L11 1L11 2L10 2L10 0ZM23 0L23 1L24 1L24 0ZM14 1L14 2L12 2L12 4L14 4L14 5L16 5L16 6L15 6L15 7L14 7L14 6L13 6L13 7L14 7L14 8L15 8L15 7L16 7L16 6L17 6L17 8L19 8L19 9L20 9L20 10L19 10L19 12L21 12L21 13L20 13L20 14L19 14L19 13L17 13L17 12L18 12L18 11L17 11L17 12L16 12L16 13L15 13L15 14L16 14L16 13L17 13L17 16L18 16L18 17L14 17L14 16L16 16L16 15L14 15L14 16L13 16L13 17L12 17L12 15L13 15L13 14L12 14L12 13L11 13L11 12L10 12L10 13L11 13L11 15L10 15L10 16L8 16L8 17L6 17L6 16L7 16L7 15L6 15L6 16L5 16L5 17L4 17L4 18L2 18L2 20L4 20L4 21L3 21L3 22L4 22L4 21L5 21L5 22L7 22L7 21L5 21L5 19L6 19L6 20L8 20L8 21L9 21L9 20L10 20L10 21L11 21L11 19L10 19L10 18L13 18L13 19L12 19L12 21L15 21L15 22L16 22L16 24L18 24L18 23L19 23L19 25L20 25L20 23L21 23L21 22L19 22L19 21L22 21L22 23L23 23L23 25L24 25L24 24L27 24L27 22L28 22L28 24L29 24L29 21L30 21L30 23L31 23L31 20L30 20L30 19L29 19L29 17L27 17L27 16L28 16L28 15L27 15L27 14L26 14L26 13L24 13L24 14L23 14L23 12L24 12L24 10L23 10L23 12L21 12L21 11L22 11L22 10L21 10L21 9L22 9L22 8L21 8L21 9L20 9L20 8L19 8L19 7L20 7L20 5L19 5L19 4L17 4L17 3L16 3L16 4L15 4L15 1ZM10 3L10 4L11 4L11 3ZM16 4L16 5L17 5L17 6L18 6L18 7L19 7L19 6L18 6L18 5L17 5L17 4ZM8 5L8 7L9 7L9 5ZM3 9L3 10L4 10L4 11L6 11L6 12L7 12L7 11L6 11L6 10L7 10L7 9L6 9L6 10L5 10L5 9ZM25 9L25 10L26 10L26 9ZM8 10L8 11L9 11L9 10ZM20 10L20 11L21 11L21 10ZM30 10L30 11L29 11L29 12L30 12L30 11L31 11L31 10ZM25 11L25 12L26 12L26 11ZM21 14L21 16L20 16L20 15L19 15L19 16L20 16L20 17L18 17L18 18L20 18L20 19L19 19L19 20L16 20L16 18L15 18L15 19L14 19L14 20L15 20L15 21L19 21L19 20L20 20L20 19L21 19L21 20L22 20L22 21L23 21L23 22L24 22L24 23L25 23L25 22L27 22L27 21L29 21L29 20L28 20L28 19L25 19L25 20L24 20L24 21L23 21L23 20L22 20L22 19L23 19L23 18L24 18L24 17L25 17L25 18L27 18L27 17L26 17L26 15L23 15L23 14ZM2 16L2 17L3 17L3 16ZM10 16L10 17L11 17L11 16ZM21 16L21 17L20 17L20 18L21 18L21 17L22 17L22 18L23 18L23 17L24 17L24 16L23 16L23 17L22 17L22 16ZM5 17L5 18L4 18L4 19L5 19L5 18L6 18L6 19L7 19L7 18L6 18L6 17ZM8 19L8 20L9 20L9 19ZM26 20L26 21L27 21L27 20ZM24 21L24 22L25 22L25 21ZM14 23L14 24L15 24L15 23ZM8 24L8 27L9 27L9 24ZM21 24L21 25L22 25L22 24ZM25 25L25 28L28 28L28 25ZM26 26L26 27L27 27L27 26ZM30 26L30 27L31 27L31 26ZM22 27L22 28L21 28L21 29L20 29L20 28L18 28L18 29L15 29L15 30L17 30L17 32L18 32L18 31L20 31L20 30L21 30L21 29L22 29L22 28L23 28L23 27ZM18 29L18 30L20 30L20 29ZM14 31L14 32L15 32L15 31ZM0 0L0 7L7 7L7 0ZM1 1L1 6L6 6L6 1ZM2 2L2 5L5 5L5 2ZM26 0L26 7L33 7L33 0ZM27 1L27 6L32 6L32 1ZM28 2L28 5L31 5L31 2ZM0 26L0 33L7 33L7 26ZM1 27L1 32L6 32L6 27ZM2 28L2 31L5 31L5 28Z" fill="#000000"/></g></g></svg>
