<?xml version="1.0" encoding="UTF-8"?>
<svg xmlns="http://www.w3.org/2000/svg" version="1.1" width="200" height="200" viewBox="0 0 200 200"><rect x="0" y="0" width="200" height="200" fill="#ffffff"/><g transform="scale(6.061)"><g transform="translate(0,0)"><path fill-rule="evenodd" d="M9 0L9 1L8 1L8 2L9 2L9 3L8 3L8 4L10 4L10 7L11 7L11 4L12 4L12 5L13 5L13 6L12 6L12 9L13 9L13 8L14 8L14 9L19 9L19 10L20 10L20 9L21 9L21 10L22 10L22 11L21 11L21 12L23 12L23 14L21 14L21 13L18 13L18 12L17 12L17 11L16 11L16 10L15 10L15 11L14 11L14 12L15 12L15 13L12 13L12 11L13 11L13 10L11 10L11 11L10 11L10 9L11 9L11 8L6 8L6 9L7 9L7 10L5 10L5 8L0 8L0 9L1 9L1 10L2 10L2 11L1 11L1 12L0 12L0 13L1 13L1 12L2 12L2 11L3 11L3 13L2 13L2 15L3 15L3 13L5 13L5 12L4 12L4 11L3 11L3 10L5 10L5 11L7 11L7 12L6 12L6 13L8 13L8 9L9 9L9 14L10 14L10 17L9 17L9 15L8 15L8 14L6 14L6 15L5 15L5 14L4 14L4 15L5 15L5 16L4 16L4 17L3 17L3 16L0 16L0 17L2 17L2 19L1 19L1 18L0 18L0 19L1 19L1 21L0 21L0 25L1 25L1 21L2 21L2 23L3 23L3 24L2 24L2 25L3 25L3 24L4 24L4 25L8 25L8 27L9 27L9 25L8 25L8 24L6 24L6 23L7 23L7 22L4 22L4 21L5 21L5 19L7 19L7 20L6 20L6 21L10 21L10 22L11 22L11 21L12 21L12 22L13 22L13 23L12 23L12 25L13 25L13 24L14 24L14 25L16 25L16 26L15 26L15 27L14 27L14 28L15 28L15 29L12 29L12 27L13 27L13 26L11 26L11 25L10 25L10 27L11 27L11 29L10 29L10 28L8 28L8 33L9 33L9 32L10 32L10 33L11 33L11 31L9 31L9 29L10 29L10 30L11 30L11 29L12 29L12 30L13 30L13 31L12 31L12 33L13 33L13 32L14 32L14 33L20 33L20 32L23 32L23 31L24 31L24 30L23 30L23 31L22 31L22 29L23 29L23 28L24 28L24 29L25 29L25 30L26 30L26 31L25 31L25 32L24 32L24 33L25 33L25 32L27 32L27 30L26 30L26 29L28 29L28 30L29 30L29 32L28 32L28 33L29 33L29 32L31 32L31 33L32 33L32 32L31 32L31 31L30 31L30 29L29 29L29 28L31 28L31 30L33 30L33 28L31 28L31 27L32 27L32 26L33 26L33 24L32 24L32 26L31 26L31 25L30 25L30 26L29 26L29 24L31 24L31 23L32 23L32 22L33 22L33 21L32 21L32 20L31 20L31 19L32 19L32 18L33 18L33 17L32 17L32 16L31 16L31 15L32 15L32 14L33 14L33 13L31 13L31 15L30 15L30 16L31 16L31 19L30 19L30 17L29 17L29 14L27 14L27 13L26 13L26 12L28 12L28 13L30 13L30 12L31 12L31 11L32 11L32 10L33 10L33 9L32 9L32 8L31 8L31 9L30 9L30 8L29 8L29 9L30 9L30 10L29 10L29 11L27 11L27 10L28 10L28 8L27 8L27 9L26 9L26 8L24 8L24 7L25 7L25 6L24 6L24 7L23 7L23 5L24 5L24 4L23 4L23 3L25 3L25 2L23 2L23 3L22 3L22 1L20 1L20 0L19 0L19 1L18 1L18 0L17 0L17 1L15 1L15 0L14 0L14 1L11 1L11 2L10 2L10 0ZM23 0L23 1L24 1L24 0ZM14 1L14 2L12 2L12 4L14 4L14 5L17 5L17 8L19 8L19 9L20 9L20 8L19 8L19 7L20 7L20 5L21 5L21 7L22 7L22 5L23 5L23 4L22 4L22 3L21 3L21 4L20 4L20 1L19 1L19 4L15 4L15 3L16 3L16 2L15 2L15 1ZM17 1L17 3L18 3L18 1ZM10 3L10 4L11 4L11 3ZM19 4L19 5L18 5L18 7L19 7L19 5L20 5L20 4ZM8 5L8 7L9 7L9 5ZM13 6L13 7L14 7L14 8L15 8L15 7L16 7L16 6L15 6L15 7L14 7L14 6ZM21 8L21 9L22 9L22 8ZM2 9L2 10L3 10L3 9ZM25 9L25 10L26 10L26 9ZM23 10L23 12L24 12L24 10ZM30 10L30 11L29 11L29 12L30 12L30 11L31 11L31 10ZM15 11L15 12L16 12L16 13L15 13L15 14L16 14L16 15L14 15L14 16L13 16L13 17L12 17L12 15L13 15L13 14L12 14L12 13L11 13L11 12L10 12L10 13L11 13L11 17L10 17L10 18L9 18L9 17L8 17L8 18L9 18L9 19L8 19L8 20L9 20L9 19L10 19L10 21L11 21L11 18L13 18L13 19L12 19L12 21L15 21L15 22L17 22L17 24L16 24L16 25L17 25L17 26L16 26L16 27L17 27L17 28L16 28L16 29L15 29L15 30L16 30L16 29L17 29L17 31L14 31L14 32L19 32L19 31L20 31L20 30L21 30L21 29L22 29L22 28L23 28L23 27L22 27L22 28L21 28L21 29L20 29L20 28L19 28L19 27L21 27L21 25L22 25L22 24L21 24L21 25L20 25L20 23L21 23L21 22L19 22L19 23L18 23L18 21L22 21L22 23L23 23L23 25L24 25L24 24L27 24L27 22L28 22L28 24L29 24L29 21L30 21L30 23L31 23L31 20L30 20L30 19L29 19L29 17L27 17L27 16L28 16L28 15L27 15L27 14L26 14L26 13L24 13L24 14L23 14L23 15L26 15L26 17L27 17L27 18L25 18L25 17L24 17L24 16L23 16L23 17L22 17L22 16L19 16L19 17L14 17L14 16L18 16L18 15L21 15L21 14L18 14L18 13L17 13L17 12L16 12L16 11ZM19 11L19 12L20 12L20 11ZM25 11L25 12L26 12L26 11ZM16 13L16 14L17 14L17 15L18 15L18 14L17 14L17 13ZM6 15L6 16L7 16L7 15ZM4 17L4 19L3 19L3 21L4 21L4 19L5 19L5 18L7 18L7 17ZM19 17L19 18L18 18L18 20L16 20L16 18L15 18L15 19L14 19L14 20L15 20L15 21L18 21L18 20L20 20L20 19L21 19L21 20L22 20L22 21L23 21L23 22L24 22L24 23L25 23L25 22L27 22L27 21L29 21L29 20L28 20L28 19L25 19L25 20L24 20L24 21L23 21L23 20L22 20L22 19L23 19L23 18L24 18L24 17L23 17L23 18L22 18L22 17ZM19 18L19 19L20 19L20 18ZM26 20L26 21L27 21L27 20ZM24 21L24 22L25 22L25 21ZM3 22L3 23L4 23L4 22ZM10 23L10 24L11 24L11 23ZM14 23L14 24L15 24L15 23ZM17 24L17 25L19 25L19 26L20 26L20 25L19 25L19 24ZM25 25L25 28L28 28L28 25ZM17 26L17 27L18 27L18 26ZM26 26L26 27L27 27L27 26ZM30 26L30 27L31 27L31 26ZM17 28L17 29L19 29L19 30L20 30L20 29L19 29L19 28ZM0 0L0 7L7 7L7 0ZM1 1L1 6L6 6L6 1ZM2 2L2 5L5 5L5 2ZM26 0L26 7L33 7L33 0ZM27 1L27 6L32 6L32 1ZM28 2L28 5L31 5L31 2ZM0 26L0 33L7 33L7 26ZM1 27L1 32L6 32L6 27ZM2 28L2 31L5 31L5 28Z" fill="#000000"/></g></g></svg>
