<?xml version="1.0" encoding="UTF-8"?>
<svg xmlns="http://www.w3.org/2000/svg" version="1.1" width="200" height="200" viewBox="0 0 200 200"><rect x="0" y="0" width="200" height="200" fill="#ffffff"/><g transform="scale(6.061)"><g transform="translate(0,0)"><path fill-rule="evenodd" d="M9 0L9 1L8 1L8 2L9 2L9 3L8 3L8 4L10 4L10 7L11 7L11 4L12 4L12 5L13 5L13 6L12 6L12 9L13 9L13 8L14 8L14 9L15 9L15 8L16 8L16 9L19 9L19 10L15 10L15 11L14 11L14 12L15 12L15 13L12 13L12 11L13 11L13 10L11 10L11 11L10 11L10 9L11 9L11 8L6 8L6 9L5 9L5 8L0 8L0 9L3 9L3 10L0 10L0 11L1 11L1 12L0 12L0 14L1 14L1 15L2 15L2 14L4 14L4 16L3 16L3 18L2 18L2 19L1 19L1 18L0 18L0 20L1 20L1 21L0 21L0 25L1 25L1 22L4 22L4 25L7 25L7 24L5 24L5 22L4 22L4 21L7 21L7 22L6 22L6 23L7 23L7 22L8 22L8 21L9 21L9 22L10 22L10 23L9 23L9 25L8 25L8 27L9 27L9 28L8 28L8 33L11 33L11 32L10 32L10 31L9 31L9 29L10 29L10 28L11 28L11 29L12 29L12 30L13 30L13 31L12 31L12 33L13 33L13 32L14 32L14 33L16 33L16 32L17 32L17 33L18 33L18 32L17 32L17 31L18 31L18 30L17 30L17 31L16 31L16 30L15 30L15 29L19 29L19 30L20 30L20 31L19 31L19 33L20 33L20 32L23 32L23 31L24 31L24 30L23 30L23 31L22 31L22 29L23 29L23 28L24 28L24 29L25 29L25 30L26 30L26 31L25 31L25 32L24 32L24 33L25 33L25 32L27 32L27 30L26 30L26 29L28 29L28 30L29 30L29 32L28 32L28 33L29 33L29 32L31 32L31 33L32 33L32 32L31 32L31 31L30 31L30 29L29 29L29 28L31 28L31 30L33 30L33 28L31 28L31 27L32 27L32 26L33 26L33 24L32 24L32 26L31 26L31 25L30 25L30 26L29 26L29 24L31 24L31 23L32 23L32 22L33 22L33 21L32 21L32 20L31 20L31 19L32 19L32 18L33 18L33 17L32 17L32 16L31 16L31 15L32 15L32 14L33 14L33 13L31 13L31 15L30 15L30 16L31 16L31 19L30 19L30 17L29 17L29 14L27 14L27 13L26 13L26 12L28 12L28 13L30 13L30 12L31 12L31 11L32 11L32 10L33 10L33 9L32 9L32 8L31 8L31 9L30 9L30 8L29 8L29 9L30 9L30 10L29 10L29 11L27 11L27 10L28 10L28 8L27 8L27 9L26 9L26 8L24 8L24 7L25 7L25 6L24 6L24 7L23 7L23 5L24 5L24 4L23 4L23 3L25 3L25 2L23 2L23 3L22 3L22 1L21 1L21 2L20 2L20 4L19 4L19 2L18 2L18 3L17 3L17 4L16 4L16 3L15 3L15 4L16 4L16 5L14 5L14 4L12 4L12 2L14 2L14 1L15 1L15 2L16 2L16 1L15 1L15 0L14 0L14 1L11 1L11 2L10 2L10 0ZM19 0L19 1L20 1L20 0ZM23 0L23 1L24 1L24 0ZM10 3L10 4L11 4L11 3ZM21 3L21 4L20 4L20 5L19 5L19 4L17 4L17 5L18 5L18 6L17 6L17 7L16 7L16 6L15 6L15 7L14 7L14 6L13 6L13 7L14 7L14 8L15 8L15 7L16 7L16 8L19 8L19 9L20 9L20 10L19 10L19 11L20 11L20 12L19 12L19 13L15 13L15 14L16 14L16 15L17 15L17 16L16 16L16 17L14 17L14 16L15 16L15 15L14 15L14 16L13 16L13 17L12 17L12 15L13 15L13 14L12 14L12 13L11 13L11 12L10 12L10 13L9 13L9 9L6 9L6 10L5 10L5 11L6 11L6 12L7 12L7 13L6 13L6 14L5 14L5 16L7 16L7 17L6 17L6 18L7 18L7 19L5 19L5 18L4 18L4 20L7 20L7 21L8 21L8 18L9 18L9 19L11 19L11 18L13 18L13 19L12 19L12 21L11 21L11 20L10 20L10 21L11 21L11 23L10 23L10 26L9 26L9 27L11 27L11 26L13 26L13 27L12 27L12 29L15 29L15 28L14 28L14 27L15 27L15 26L16 26L16 27L17 27L17 28L18 28L18 27L17 27L17 26L18 26L18 25L20 25L20 26L19 26L19 27L21 27L21 25L22 25L22 24L21 24L21 25L20 25L20 23L21 23L21 22L19 22L19 21L22 21L22 23L23 23L23 25L24 25L24 24L27 24L27 22L28 22L28 24L29 24L29 21L30 21L30 23L31 23L31 20L30 20L30 19L29 19L29 17L27 17L27 16L28 16L28 15L27 15L27 14L26 14L26 13L24 13L24 14L23 14L23 12L24 12L24 10L23 10L23 12L21 12L21 11L22 11L22 10L21 10L21 9L22 9L22 8L21 8L21 9L20 9L20 8L19 8L19 7L20 7L20 5L21 5L21 7L22 7L22 5L23 5L23 4L22 4L22 3ZM8 5L8 7L9 7L9 5ZM18 6L18 7L19 7L19 6ZM25 9L25 10L26 10L26 9ZM6 10L6 11L7 11L7 10ZM30 10L30 11L29 11L29 12L30 12L30 11L31 11L31 10ZM3 11L3 12L4 12L4 13L5 13L5 12L4 12L4 11ZM17 11L17 12L18 12L18 11ZM25 11L25 12L26 12L26 11ZM20 12L20 13L19 13L19 14L17 14L17 15L18 15L18 16L17 16L17 17L16 17L16 18L15 18L15 19L14 19L14 20L15 20L15 21L12 21L12 22L13 22L13 23L12 23L12 25L13 25L13 24L14 24L14 25L18 25L18 24L19 24L19 23L18 23L18 24L17 24L17 22L15 22L15 21L19 21L19 18L20 18L20 17L21 17L21 19L20 19L20 20L22 20L22 21L23 21L23 22L24 22L24 23L25 23L25 22L27 22L27 21L29 21L29 20L28 20L28 19L25 19L25 20L24 20L24 21L23 21L23 20L22 20L22 19L23 19L23 18L24 18L24 17L25 17L25 18L27 18L27 17L26 17L26 15L23 15L23 14L20 14L20 13L21 13L21 12ZM1 13L1 14L2 14L2 13ZM7 13L7 14L6 14L6 15L7 15L7 16L8 16L8 17L7 17L7 18L8 18L8 17L11 17L11 16L10 16L10 15L11 15L11 13L10 13L10 15L7 15L7 14L9 14L9 13ZM19 14L19 17L18 17L18 18L16 18L16 20L18 20L18 18L19 18L19 17L20 17L20 16L21 16L21 17L22 17L22 18L23 18L23 17L24 17L24 16L23 16L23 17L22 17L22 16L21 16L21 15L20 15L20 14ZM0 16L0 17L2 17L2 16ZM2 19L2 20L3 20L3 19ZM26 20L26 21L27 21L27 20ZM24 21L24 22L25 22L25 21ZM2 23L2 25L3 25L3 23ZM14 23L14 24L15 24L15 23ZM25 25L25 28L28 28L28 25ZM26 26L26 27L27 27L27 26ZM30 26L30 27L31 27L31 26ZM22 27L22 28L21 28L21 29L20 29L20 28L19 28L19 29L20 29L20 30L21 30L21 29L22 29L22 28L23 28L23 27ZM14 31L14 32L16 32L16 31ZM0 0L0 7L7 7L7 0ZM1 1L1 6L6 6L6 1ZM2 2L2 5L5 5L5 2ZM26 0L26 7L33 7L33 0ZM27 1L27 6L32 6L32 1ZM28 2L28 5L31 5L31 2ZM0 26L0 33L7 33L7 26ZM1 27L1 32L6 32L6 27ZM2 28L2 31L5 31L5 28Z" fill="#000000"/></g></g></svg>
