<?xml version="1.0" encoding="UTF-8"?>
<svg xmlns="http://www.w3.org/2000/svg" version="1.1" width="200" height="200" viewBox="0 0 200 200"><rect x="0" y="0" width="200" height="200" fill="#ffffff"/><g transform="scale(6.061)"><g transform="translate(0,0)"><path fill-rule="evenodd" d="M9 0L9 1L8 1L8 2L9 2L9 3L8 3L8 4L10 4L10 7L11 7L11 4L12 4L12 5L13 5L13 6L12 6L12 9L13 9L13 8L14 8L14 9L15 9L15 8L16 8L16 9L19 9L19 10L20 10L20 11L21 11L21 12L19 12L19 11L18 11L18 12L16 12L16 10L15 10L15 11L14 11L14 12L16 12L16 13L19 13L19 14L20 14L20 15L19 15L19 16L17 16L17 17L16 17L16 16L14 16L14 15L16 15L16 14L15 14L15 13L12 13L12 11L13 11L13 10L11 10L11 11L10 11L10 9L11 9L11 8L6 8L6 9L7 9L7 10L4 10L4 9L5 9L5 8L0 8L0 9L3 9L3 10L1 10L1 11L0 11L0 12L2 12L2 13L4 13L4 14L3 14L3 15L2 15L2 14L0 14L0 15L2 15L2 16L1 16L1 17L0 17L0 18L1 18L1 17L2 17L2 18L3 18L3 19L1 19L1 21L0 21L0 25L1 25L1 22L6 22L6 23L7 23L7 24L6 24L6 25L7 25L7 24L9 24L9 21L10 21L10 19L9 19L9 18L6 18L6 19L5 19L5 18L4 18L4 17L5 17L5 16L4 16L4 15L7 15L7 16L6 16L6 17L11 17L11 16L10 16L10 14L11 14L11 13L12 13L12 14L13 14L13 15L12 15L12 17L13 17L13 16L14 16L14 17L16 17L16 18L15 18L15 19L14 19L14 20L15 20L15 21L12 21L12 19L13 19L13 18L11 18L11 21L12 21L12 22L13 22L13 23L12 23L12 25L13 25L13 24L14 24L14 25L16 25L16 26L15 26L15 27L14 27L14 28L16 28L16 29L19 29L19 30L20 30L20 31L19 31L19 32L14 32L14 31L16 31L16 30L15 30L15 29L12 29L12 27L13 27L13 26L11 26L11 27L10 27L10 29L9 29L9 28L8 28L8 33L9 33L9 32L10 32L10 31L11 31L11 30L10 30L10 29L12 29L12 30L13 30L13 31L12 31L12 33L13 33L13 32L14 32L14 33L20 33L20 32L23 32L23 31L24 31L24 30L23 30L23 31L22 31L22 29L23 29L23 28L24 28L24 29L25 29L25 30L26 30L26 31L25 31L25 32L24 32L24 33L25 33L25 32L27 32L27 30L26 30L26 29L28 29L28 30L29 30L29 32L28 32L28 33L29 33L29 32L31 32L31 33L32 33L32 32L31 32L31 31L30 31L30 29L29 29L29 28L31 28L31 30L33 30L33 28L31 28L31 27L32 27L32 26L33 26L33 24L32 24L32 26L31 26L31 25L30 25L30 26L29 26L29 24L31 24L31 23L32 23L32 22L33 22L33 21L32 21L32 20L31 20L31 19L32 19L32 18L33 18L33 17L32 17L32 16L31 16L31 15L32 15L32 14L33 14L33 13L31 13L31 15L30 15L30 16L31 16L31 19L30 19L30 17L29 17L29 14L27 14L27 13L26 13L26 12L28 12L28 13L30 13L30 12L31 12L31 11L32 11L32 10L33 10L33 9L32 9L32 8L31 8L31 9L30 9L30 8L29 8L29 9L30 9L30 10L29 10L29 11L27 11L27 10L28 10L28 8L27 8L27 9L26 9L26 8L24 8L24 7L25 7L25 6L24 6L24 7L23 7L23 5L24 5L24 4L23 4L23 3L25 3L25 2L23 2L23 3L22 3L22 1L20 1L20 0L19 0L19 1L17 1L17 2L16 2L16 1L15 1L15 0L14 0L14 1L11 1L11 2L10 2L10 0ZM23 0L23 1L24 1L24 0ZM14 1L14 2L12 2L12 4L14 4L14 5L16 5L16 6L15 6L15 7L14 7L14 6L13 6L13 7L14 7L14 8L15 8L15 7L16 7L16 8L18 8L18 6L19 6L19 8L21 8L21 9L20 9L20 10L21 10L21 11L22 11L22 10L21 10L21 9L22 9L22 8L21 8L21 7L22 7L22 5L23 5L23 4L22 4L22 3L21 3L21 2L20 2L20 1L19 1L19 2L17 2L17 3L19 3L19 4L15 4L15 1ZM19 2L19 3L20 3L20 2ZM10 3L10 4L11 4L11 3ZM19 4L19 5L20 5L20 7L21 7L21 4ZM8 5L8 7L9 7L9 5ZM17 5L17 6L16 6L16 7L17 7L17 6L18 6L18 5ZM25 9L25 10L26 10L26 9ZM3 10L3 12L4 12L4 13L6 13L6 14L7 14L7 15L8 15L8 16L9 16L9 15L8 15L8 14L7 14L7 13L8 13L8 12L7 12L7 11L9 11L9 10L7 10L7 11L6 11L6 12L4 12L4 10ZM23 10L23 12L21 12L21 13L20 13L20 14L23 14L23 15L26 15L26 17L27 17L27 18L25 18L25 17L24 17L24 16L23 16L23 17L22 17L22 16L21 16L21 15L20 15L20 16L19 16L19 17L17 17L17 18L16 18L16 20L19 20L19 21L15 21L15 22L16 22L16 23L14 23L14 24L16 24L16 25L17 25L17 27L16 27L16 28L18 28L18 27L21 27L21 25L22 25L22 24L21 24L21 25L20 25L20 23L21 23L21 22L19 22L19 21L22 21L22 23L23 23L23 25L24 25L24 24L27 24L27 22L28 22L28 24L29 24L29 21L30 21L30 23L31 23L31 20L30 20L30 19L29 19L29 17L27 17L27 16L28 16L28 15L27 15L27 14L26 14L26 13L24 13L24 14L23 14L23 12L24 12L24 10ZM30 10L30 11L29 11L29 12L30 12L30 11L31 11L31 10ZM25 11L25 12L26 12L26 11ZM6 12L6 13L7 13L7 12ZM10 12L10 13L11 13L11 12ZM17 14L17 15L18 15L18 14ZM3 16L3 17L4 17L4 16ZM20 16L20 17L19 17L19 18L20 18L20 20L22 20L22 21L23 21L23 22L24 22L24 23L25 23L25 22L27 22L27 21L29 21L29 20L28 20L28 19L25 19L25 20L24 20L24 21L23 21L23 20L22 20L22 19L23 19L23 18L24 18L24 17L23 17L23 18L22 18L22 17L21 17L21 16ZM20 17L20 18L21 18L21 17ZM4 19L4 21L5 21L5 19ZM6 19L6 20L7 20L7 21L6 21L6 22L7 22L7 23L8 23L8 22L7 22L7 21L8 21L8 20L7 20L7 19ZM26 20L26 21L27 21L27 20ZM24 21L24 22L25 22L25 21ZM10 22L10 23L11 23L11 22ZM17 22L17 23L19 23L19 22ZM3 23L3 24L2 24L2 25L3 25L3 24L4 24L4 25L5 25L5 24L4 24L4 23ZM10 24L10 25L11 25L11 24ZM17 24L17 25L18 25L18 26L20 26L20 25L18 25L18 24ZM8 25L8 27L9 27L9 25ZM25 25L25 28L28 28L28 25ZM26 26L26 27L27 27L27 26ZM30 26L30 27L31 27L31 26ZM22 27L22 28L21 28L21 29L20 29L20 28L19 28L19 29L20 29L20 30L21 30L21 29L22 29L22 28L23 28L23 27ZM17 30L17 31L18 31L18 30ZM0 0L0 7L7 7L7 0ZM1 1L1 6L6 6L6 1ZM2 2L2 5L5 5L5 2ZM26 0L26 7L33 7L33 0ZM27 1L27 6L32 6L32 1ZM28 2L28 5L31 5L31 2ZM0 26L0 33L7 33L7 26ZM1 27L1 32L6 32L6 27ZM2 28L2 31L5 31L5 28Z" fill="#000000"/></g></g></svg>
